<?xml version="1.0" encoding="utf-8"?>
<!-- Generator: Adobe Illustrator 24.2.1, SVG Export Plug-In . SVG Version: 6.00 Build 0)  -->
<svg version="1.1"
	 id="svg28" xmlns:cc="http://creativecommons.org/ns#" xmlns:dc="http://purl.org/dc/elements/1.1/" xmlns:inkscape="http://www.inkscape.org/namespaces/inkscape" xmlns:rdf="http://www.w3.org/1999/02/22-rdf-syntax-ns#" xmlns:sodipodi="http://sodipodi.sourceforge.net/DTD/sodipodi-0.dtd" xmlns:svg="http://www.w3.org/2000/svg"
	 xmlns="http://www.w3.org/2000/svg" xmlns:xlink="http://www.w3.org/1999/xlink" x="0px" y="0px" viewBox="0 0 1046.1 727"
	 style="enable-background:new 0 0 1046.1 727;" xml:space="preserve">
<style type="text/css">
	.st0{fill:url(#path22_1_);}
	.st1{fill:url(#path24_1_);}
	.st2{fill:#FFFFFF;}
</style>
<sodipodi:namedview  bordercolor="#666666" borderopacity="1" fit-margin-bottom="0" fit-margin-left="0" fit-margin-right="0" fit-margin-top="0" gridtolerance="10" guidetolerance="10" id="namedview30" inkscape:current-layer="svg28" inkscape:cx="2.3624038" inkscape:cy="246.72141" inkscape:pageopacity="0" inkscape:pageshadow="2" inkscape:window-height="837" inkscape:window-maximized="1" inkscape:window-width="1600" inkscape:window-x="-8" inkscape:window-y="-8" inkscape:zoom="0.31605531" objecttolerance="10" pagecolor="#ffffff" showgrid="false">
	</sodipodi:namedview>
<radialGradient id="path22_1_" cx="659.7176" cy="399.2725" r="359.7825" gradientTransform="matrix(0 -1.982 -1.8439 0 1093.4135 2089.5469)" gradientUnits="userSpaceOnUse">
	<stop  offset="0" style="stop-color:#FFDD55"/>
	<stop  offset="0.1" style="stop-color:#FFDD55"/>
	<stop  offset="0.5" style="stop-color:#FF543E"/>
	<stop  offset="1" style="stop-color:#C837AB"/>
</radialGradient>
<path id="path22" inkscape:connector-curvature="0" class="st0" d="M526,7.1c-150.2,0-194.2,0.2-202.7,0.9
	c-30.8,2.6-50,7.4-70.9,17.8C236.3,33.8,223.6,43,211,56c-22.8,23.7-36.7,52.9-41.7,87.5c-2.4,16.8-3.1,20.3-3.3,106.2
	c-0.1,28.6,0,66.4,0,116.9c0,150.1,0.2,194,0.9,202.5c2.5,30,7.2,48.9,17.2,69.5c19,39.5,55.4,69.2,98.2,80.3
	c14.8,3.8,31.2,5.9,52.3,6.9c8.9,0.4,99.7,0.7,190.6,0.7s181.8-0.1,190.5-0.6c24.4-1.1,38.5-3,54.1-7.1
	c43.1-11.1,78.8-40.4,98.2-80.4c9.8-20.1,14.7-39.7,17-68.2c0.5-6.2,0.7-105,0.7-203.7c0-98.7-0.2-197.4-0.7-203.6
	c-2.3-28.9-7.2-48.3-17.3-68.9c-8.3-16.8-17.5-29.4-30.8-42.2c-23.8-22.7-52.9-36.6-87.6-41.6c-16.8-2.4-20.2-3.1-106.2-3.3L526,7.1
	z"/>
<radialGradient id="path24_1_" cx="-580.1747" cy="-335.6789" r="359.7825" gradientTransform="matrix(0.1739 0.8687 3.5818 -0.7172 1348.7208 322.1778)" gradientUnits="userSpaceOnUse">
	<stop  offset="0" style="stop-color:#3771C8"/>
	<stop  offset="0.128" style="stop-color:#3771C8"/>
	<stop  offset="1" style="stop-color:#6600FF;stop-opacity:0"/>
</radialGradient>
<path id="path24" inkscape:connector-curvature="0" class="st1" d="M526,7.1c-150.2,0-194.2,0.2-202.7,0.9
	c-30.8,2.6-50,7.4-70.9,17.8C236.3,33.8,223.6,43,211,56c-22.8,23.7-36.7,52.9-41.7,87.5c-2.4,16.8-3.1,20.3-3.3,106.2
	c-0.1,28.6,0,66.4,0,116.9c0,150.1,0.2,194,0.9,202.5c2.5,30,7.2,48.9,17.2,69.5c19,39.5,55.4,69.2,98.2,80.3
	c14.8,3.8,31.2,5.9,52.3,6.9c8.9,0.4,99.7,0.7,190.6,0.7s181.8-0.1,190.5-0.6c24.4-1.1,38.5-3,54.1-7.1
	c43.1-11.1,78.8-40.4,98.2-80.4c9.8-20.1,14.7-39.7,17-68.2c0.5-6.2,0.7-105,0.7-203.7c0-98.7-0.2-197.4-0.7-203.6
	c-2.3-28.9-7.2-48.3-17.3-68.9c-8.3-16.8-17.5-29.4-30.8-42.2c-23.8-22.7-52.9-36.6-87.6-41.6c-16.8-2.4-20.2-3.1-106.2-3.3L526,7.1
	z"/>
<path id="path26" inkscape:connector-curvature="0" class="st2" d="M525.8,101.2c-72.2,0-81.2,0.3-109.6,1.6
	c-28.3,1.3-47.6,5.8-64.5,12.3c-17.5,6.8-32.3,15.9-47.1,30.6c-14.8,14.8-23.9,29.6-30.7,47.1c-6.6,16.9-11.1,36.2-12.3,64.5
	c-1.3,28.3-1.6,37.4-1.6,109.6c0,72.2,0.3,81.2,1.6,109.5c1.3,28.3,5.8,47.6,12.3,64.5c6.8,17.5,15.9,32.3,30.6,47.1
	c14.8,14.8,29.6,23.9,47,30.7c16.9,6.6,36.2,11,64.5,12.3c28.3,1.3,37.4,1.6,109.5,1.6c72.2,0,81.2-0.3,109.5-1.6
	c28.3-1.3,47.6-5.8,64.5-12.3c17.5-6.8,32.3-15.9,47-30.7c14.8-14.8,23.9-29.6,30.7-47.1c6.5-16.9,11-36.2,12.3-64.5
	c1.3-28.3,1.6-37.4,1.6-109.5s-0.3-81.2-1.6-109.6c-1.3-28.3-5.8-47.6-12.3-64.5c-6.8-17.5-15.9-32.3-30.7-47.1
	c-14.8-14.8-29.6-23.9-47-30.6c-16.9-6.6-36.3-11-64.5-12.3C606.9,101.5,597.9,101.2,525.8,101.2L525.8,101.2z M502,149.1
	c7.1,0,15,0,23.8,0c70.9,0,79.3,0.3,107.4,1.5c25.9,1.2,40,5.5,49.3,9.1c12.4,4.8,21.2,10.6,30.5,19.9c9.3,9.3,15.1,18.2,19.9,30.6
	c3.6,9.4,8,23.4,9.1,49.3c1.3,28,1.5,36.4,1.5,107.3s-0.3,79.3-1.5,107.3c-1.2,25.9-5.5,40-9.1,49.3c-4.8,12.4-10.6,21.2-19.9,30.5
	c-9.3,9.3-18.1,15.1-30.5,19.9c-9.4,3.7-23.4,8-49.3,9.2c-28,1.3-36.4,1.5-107.4,1.5c-70.9,0-79.4-0.3-107.4-1.5
	c-25.9-1.2-40-5.5-49.3-9.2c-12.4-4.8-21.3-10.6-30.6-19.9c-9.3-9.3-15.1-18.1-19.9-30.5c-3.6-9.4-8-23.4-9.1-49.3
	c-1.3-28-1.5-36.4-1.5-107.4s0.3-79.3,1.5-107.3c1.2-25.9,5.5-40,9.1-49.3c4.8-12.4,10.6-21.3,19.9-30.6
	c9.3-9.3,18.2-15.1,30.6-19.9c9.4-3.7,23.4-8,49.3-9.2C443,149.4,452.5,149,502,149.1L502,149.1z M667.6,193.2
	c-17.6,0-31.9,14.3-31.9,31.9c0,17.6,14.3,31.9,31.9,31.9s31.9-14.3,31.9-31.9S685.2,193.2,667.6,193.2L667.6,193.2z M525.8,230.4
	c-75.3,0-136.4,61.1-136.4,136.4c0,75.3,61.1,136.4,136.4,136.4c75.3,0,136.4-61.1,136.4-136.4C662.2,291.5,601.2,230.4,525.8,230.4
	L525.8,230.4z M525.8,278.3c48.9,0,88.6,39.6,88.6,88.6c0,48.9-39.7,88.6-88.6,88.6c-48.9,0-88.6-39.7-88.6-88.6
	C437.3,317.9,476.9,278.3,525.8,278.3z"/>
</svg>
